<svg xmlns="http://www.w3.org/2000/svg" width="70.502" height="70.505" viewBox="0 0 70.502 70.505">
  <g id="feat1" transform="translate(-69.789 0.251)">
    <path id="Path_61134" data-name="Path 61134" d="M85.843,353.885a15.808,15.808,0,0,1-11.811-26.309,9.035,9.035,0,0,1,6.1-3.139l.135,2.258a6.923,6.923,0,0,0-4.584,2.348,13.606,13.606,0,1,0,20.234,0,6.593,6.593,0,0,0-7.4-1.637,6.775,6.775,0,0,1-2.676.508v-2.258a4.714,4.714,0,0,0,1.8-.35,8.751,8.751,0,0,1,9.959,2.258,15.808,15.808,0,0,1-11.133,26.32Z" transform="translate(0 -283.881)" fill="#006838" stroke="#006838" stroke-width="0.5"/>
    <path id="Path_61135" data-name="Path 61135" d="M159.225,359.071c-2.654,0-5.047-2.326-5.318-2.586l1.6-1.6a6.541,6.541,0,0,0,3.715,1.931,6.541,6.541,0,0,0,3.715-1.931l1.6,1.6C164.272,356.745,161.878,359.071,159.225,359.071Z" transform="translate(-73.382 -310.519)" fill="#006838" stroke="#006838" stroke-width="0.5"/>
    <path id="Path_61136" data-name="Path 61136" d="M110.642,280H105a7.9,7.9,0,0,1-7.9-7.9v-1.129h5.645a7.9,7.9,0,0,1,7.9,7.9ZM99.464,273.23A5.645,5.645,0,0,0,105,277.746h3.274a5.645,5.645,0,0,0-5.533-4.516Z" transform="translate(-23.671 -237.099)" fill="#006838" stroke="#006838" stroke-width="0.5"/>
    <path id="Path_61137" data-name="Path 61137" d="M500.591,182.145a13.421,13.421,0,0,0-3.274-6.967,6.923,6.923,0,0,0-4.516-2.394l.124-2.258a9.032,9.032,0,0,1,6.108,3.139,15.715,15.715,0,0,1,3.805,8.1Z" transform="translate(-369.91 -149.21)" fill="#006838" stroke="#006838" stroke-width="0.5"/>
    <path id="Path_61138" data-name="Path 61138" d="M325.162,183.6l-2.258-.35a15.811,15.811,0,0,1,3.862-8.107,8.8,8.8,0,0,1,9.97-2.2,4,4,0,0,0,.926.271l-.406,2.258a6.764,6.764,0,0,1-1.411-.418,6.594,6.594,0,0,0-7.384,1.626,13.469,13.469,0,0,0-3.3,6.921Z" transform="translate(-221.253 -150.709)" fill="#006838" stroke="#006838" stroke-width="0.5"/>
    <path id="Path_61139" data-name="Path 61139" d="M432.1,91.448h-2.258V79.028a6.776,6.776,0,0,1,6.775-6.775v2.258a4.516,4.516,0,0,0-4.516,4.516Z" transform="translate(-314.825 -63.222)" fill="#006838" stroke="#006838" stroke-width="0.5"/>
    <path id="Path_61140" data-name="Path 61140" d="M189.672,245.005h-2.258v-12.42a6.776,6.776,0,0,1,6.775-6.775v2.258a4.517,4.517,0,0,0-4.516,4.516Z" transform="translate(-102.701 -197.583)" fill="#006838" stroke="#006838" stroke-width="0.5"/>
    <path id="Path_61141" data-name="Path 61141" d="M401.734,205.517c-2.642,0-5.047-2.326-5.307-2.586l1.592-1.6h0a4.55,4.55,0,0,0,7.441,0l1.592,1.6C406.793,203.191,404.387,205.517,401.734,205.517Z" transform="translate(-285.585 -176.161)" fill="#006838" stroke="#006838" stroke-width="0.5"/>
    <path id="Path_61142" data-name="Path 61142" d="M444.525,126.455H438.88v-1.129a7.9,7.9,0,0,1,7.9-7.9h5.645v1.129h0a7.9,7.9,0,0,1-7.9,7.9Zm-3.275-2.258h3.275a5.646,5.646,0,0,0,5.533-4.516h-3.275a5.646,5.646,0,0,0-5.533,4.516Z" transform="translate(-322.731 -102.744)" fill="#006838" stroke="#006838" stroke-width="0.5"/>
    <path id="Path_61143" data-name="Path 61143" d="M165.479,36.327l-4.516-6.639a2.789,2.789,0,0,1-.237-.4,3.5,3.5,0,0,1-.181-2.631,3.387,3.387,0,0,1,1.75-2.021l.327-.237a3.455,3.455,0,0,1,4.855,1.953l2.687,7.362L168,34.566l-2.676-7.384-.057-.135h0a1.29,1.29,0,0,0-.734-.644,1.232,1.232,0,0,0-.937.068l-.282.192a1.242,1.242,0,0,0-.553,1.66.851.851,0,0,0,.079.136l4.516,6.639Z" transform="translate(-79.037 -21.017)" fill="#006838" stroke="#006838" stroke-width="0.5"/>
    <path id="Path_61144" data-name="Path 61144" d="M238.415,12.634l-2.258-.226.915-9.022a1.061,1.061,0,0,0-1.027-1.129h-.2a1.027,1.027,0,0,0-1.027,1.027l.9,9.134-2.258.226-.9-9.033h0a2.841,2.841,0,0,1,0-.316A3.285,3.285,0,0,1,235.84,0h.2a3.286,3.286,0,0,1,3.285,3.286,1.665,1.665,0,0,1,0,.327Z" transform="translate(-142.195)" fill="#006838" stroke="#006838" stroke-width="0.5"/>
    <path id="Path_61145" data-name="Path 61145" d="M285.637,36.7l-1.863-1.276,4.516-6.639.09-.147h0a1.243,1.243,0,0,0-.576-1.6l-.282-.147h0a1.229,1.229,0,0,0-.937-.068,1.266,1.266,0,0,0-.723.621c0,.068,0,.113-.068.158l-2.676,7.339L281,34.156l2.687-7.362h0a2.607,2.607,0,0,1,.158-.373,3.511,3.511,0,0,1,4.652-1.649l.282.147h0a3.489,3.489,0,0,1,1.558,4.686,2.385,2.385,0,0,1-.237.407Z" transform="translate(-184.584 -21.386)" fill="#006838" stroke="#006838" stroke-width="0.5"/>
    <path id="Path_61146" data-name="Path 61146" d="M190.06,114.387l-2.258-.463,1.671-8.039h0a9.033,9.033,0,1,0-17.829-1.92,9.314,9.314,0,0,0,.192,1.92l1.671,8.039-2.258.463-1.671-8.039h0a11.291,11.291,0,1,1,22.39-2.382,11.418,11.418,0,0,1-.237,2.383Z" transform="translate(-86.931 -81.385)" fill="#006838" stroke="#006838" stroke-width="0.5"/>
    <path id="Path_61147" data-name="Path 61147" d="M295.36,361.29h36.188v2.258H295.36Z" transform="translate(-197.152 -316.126)" fill="#006838" stroke="#006838" stroke-width="0.5"/>
    <path id="Path_61148" data-name="Path 61148" d="M313.51,433.55h33.919v2.258H313.51Z" transform="translate(-213.033 -379.353)" fill="#006838" stroke="#006838" stroke-width="0.5"/>
    <path id="Path_61149" data-name="Path 61149" d="M539.68,325.16h2.258v2.258H539.68Z" transform="translate(-410.93 -284.513)" fill="#006838" stroke="#006838" stroke-width="0.5"/>
    <path id="Path_61150" data-name="Path 61150" d="M539.68,397.42h2.258v2.258H539.68Z" transform="translate(-410.93 -347.74)" fill="#006838" stroke="#006838" stroke-width="0.5"/>
    <path id="Path_61151" data-name="Path 61151" d="M539.68,469.68h2.258v2.258H539.68Z" transform="translate(-410.93 -410.967)" fill="#006838" stroke="#006838" stroke-width="0.5"/>
    <path id="Path_61152" data-name="Path 61152" d="M200.968,286.776H167.456v-2.258h33.513a3.386,3.386,0,0,0,3.387-3.387V257.419h4.516v-2.258H153.545v1.129h-2.258v-1.129a2.259,2.259,0,0,1,2.258-2.258h55.327a2.258,2.258,0,0,1,2.258,2.258v2.258h0a2.258,2.258,0,0,1-2.258,2.258h-2.258V281.13a5.645,5.645,0,0,1-5.646,5.646Z" transform="translate(-71.089 -221.288)" fill="#006838" stroke="#006838" stroke-width="0.5"/>
    <path id="Path_61153" data-name="Path 61153" d="M200.07,289.03h44.713v2.258H200.07Z" transform="translate(-113.774 -252.9)" fill="#006838" stroke="#006838" stroke-width="0.5"/>
    <path id="Path_61154" data-name="Path 61154" d="M117.417,444.837a11.29,11.29,0,0,1-11.291-11.291h2.258a9.033,9.033,0,0,0,9.033,9.033Z" transform="translate(-31.574 -379.35)" fill="#006838" stroke="#006838" stroke-width="0.5"/>
    <path id="Path_61155" data-name="Path 61155" d="M286.77,144.52h2.258v2.258H286.77Z" transform="translate(-189.636 -126.455)" fill="#006838" stroke="#006838" stroke-width="0.5"/>
    <path id="Path_61156" data-name="Path 61156" d="M286.77,180.64h2.258V182.9H286.77Z" transform="translate(-189.636 -158.059)" fill="#006838" stroke="#006838" stroke-width="0.5"/>
    <path id="Path_61157" data-name="Path 61157" d="M286.77,216.77h2.258v2.258H286.77Z" transform="translate(-189.636 -189.673)" fill="#006838" stroke="#006838" stroke-width="0.5"/>
  </g>
</svg>
