<svg id="feat2" xmlns="http://www.w3.org/2000/svg" width="75.999" height="75.999" viewBox="0 0 75.999 75.999">
  <g id="group">
    <path id="Vector" d="M30.051,38h3.167a6.352,6.352,0,0,0,6.333-6.333V0h-28.5A12.654,12.654,0,0,0,0,6.492" transform="translate(7.948 6.333)" fill="none" stroke="#006838" stroke-linecap="round" stroke-linejoin="round" stroke-width="4"/>
    <path id="Vector-2" data-name="Vector" d="M0,38a9.487,9.487,0,0,0,9.5,9.5h3.167a6.333,6.333,0,0,1,12.667,0H38a6.333,6.333,0,0,1,12.667,0h3.167a9.487,9.487,0,0,0,9.5-9.5V28.5h-9.5a3.176,3.176,0,0,1-3.167-3.167v-9.5a3.176,3.176,0,0,1,3.167-3.167h4.085L52.5,3.2A6.385,6.385,0,0,0,46.993,0H41.166V22.166A6.352,6.352,0,0,1,34.833,28.5H31.666" transform="translate(6.333 15.833)" fill="none" stroke="#006838" stroke-linecap="round" stroke-linejoin="round" stroke-width="4"/>
    <path id="Vector-3" data-name="Vector" d="M12.667,6.333A6.333,6.333,0,1,1,6.333,0,6.333,6.333,0,0,1,12.667,6.333Z" transform="translate(19 56.999)" fill="none" stroke="#006838" stroke-linecap="round" stroke-linejoin="round" stroke-width="4"/>
    <path id="Vector-4" data-name="Vector" d="M12.667,6.333A6.333,6.333,0,1,1,6.333,0,6.333,6.333,0,0,1,12.667,6.333Z" transform="translate(44.333 56.999)" fill="none" stroke="#006838" stroke-linecap="round" stroke-linejoin="round" stroke-width="4"/>
    <path id="Vector-5" data-name="Vector" d="M12.667,9.5v6.333h-9.5A3.176,3.176,0,0,1,0,12.667v-9.5A3.176,3.176,0,0,1,3.167,0H7.252Z" transform="translate(56.999 28.5)" fill="none" stroke="#006838" stroke-linecap="round" stroke-linejoin="round" stroke-width="4"/>
    <path id="Vector-6" data-name="Vector" d="M0,0H19" transform="translate(6.333 25.333)" fill="none" stroke="#006838" stroke-linecap="round" stroke-linejoin="round" stroke-width="4"/>
    <path id="Vector-7" data-name="Vector" d="M0,0H12.667" transform="translate(6.333 34.833)" fill="none" stroke="#006838" stroke-linecap="round" stroke-linejoin="round" stroke-width="4"/>
    <path id="Vector-8" data-name="Vector" d="M0,0H6.333" transform="translate(6.333 44.333)" fill="none" stroke="#006838" stroke-linecap="round" stroke-linejoin="round" stroke-width="4"/>
    <path id="Vector-9" data-name="Vector" d="M0,0H76V76H0Z" fill="none" opacity="0"/>
  </g>
</svg>
