<svg id="feat4" xmlns="http://www.w3.org/2000/svg" width="75.999" height="75.999" viewBox="0 0 75.999 75.999">
  <g id="headphone">
    <path id="Vector" d="M10.963,52.059V42.813a5.827,5.827,0,0,1,11.653,0v8.9a11.394,11.394,0,0,1-11.3,11.3,11.415,11.415,0,0,1-11.3-11.3V32.2A31.388,31.388,0,0,1,31.514,0,31.792,31.792,0,0,1,63.339,31.856V51.363a11.3,11.3,0,0,1-22.61,0v-8.9a5.827,5.827,0,0,1,11.653,0v9.595" transform="translate(6.327 6.492)" fill="none" stroke="#006838" stroke-linecap="round" stroke-linejoin="round" stroke-width="4"/>
    <path id="Vector-2" data-name="Vector" d="M0,0H76V76H0Z" fill="none" opacity="0"/>
  </g>
</svg>
