<svg id="main" xmlns="http://www.w3.org/2000/svg" width="1283" height="282.794" viewBox="0 0 1283 282.794">
  <g id="Group_174223" data-name="Group 174223" transform="translate(-29 -210)">
    <text id="_" data-name="+" transform="matrix(0.809, 0.588, -0.588, 0.809, 184.833, 463.461)" fill="#006838" font-size="82" font-family="Montserrat-Arabic-Bold, Montserrat-Arabic" font-weight="700" opacity="0.18"><tspan x="-20.951" y="0">+</tspan></text>
    <g id="Group_173733" data-name="Group 173733" transform="translate(-41 30)">
      <g id="Ellipse_728" data-name="Ellipse 728" transform="translate(303 280)" fill="#fff" stroke="#006838" stroke-width="4" opacity="0.21">
        <circle cx="10" cy="10" r="10" stroke="none"/>
        <circle cx="10" cy="10" r="8" fill="none"/>
      </g>
      <g id="Ellipse_729" data-name="Ellipse 729" transform="translate(70 265)" fill="#fff" stroke="#006838" stroke-width="4" opacity="0.1">
        <circle cx="15" cy="15" r="15" stroke="none"/>
        <circle cx="15" cy="15" r="13" fill="none"/>
      </g>
      <g id="Ellipse_730" data-name="Ellipse 730" transform="translate(246 180)" fill="#fff" stroke="#006838" stroke-width="4" opacity="0.1">
        <circle cx="15" cy="15" r="15" stroke="none"/>
        <circle cx="15" cy="15" r="13" fill="none"/>
      </g>
    </g>
  </g>
  <g id="Group_174222" data-name="Group 174222" transform="translate(-29 -210)">
    <text id="_2" data-name="+" transform="translate(1082 315)" fill="#006838" font-size="53" font-family="Montserrat-Arabic-Bold, Montserrat-Arabic" font-weight="700" opacity="0.18"><tspan x="-13.542" y="0">+</tspan></text>
    <g id="Group_173734" data-name="Group 173734" transform="translate(989 30)">
      <g id="Ellipse_727" data-name="Ellipse 727" transform="translate(194 373)" fill="#fff" stroke="#006838" stroke-width="4" opacity="0.21">
        <circle cx="26" cy="26" r="26" stroke="none"/>
        <circle cx="26" cy="26" r="24" fill="none"/>
      </g>
      <g id="Ellipse_728-2" data-name="Ellipse 728" transform="translate(303 280)" fill="#fff" stroke="#006838" stroke-width="4" opacity="0.21">
        <circle cx="10" cy="10" r="10" stroke="none"/>
        <circle cx="10" cy="10" r="8" fill="none"/>
      </g>
      <g id="Ellipse_730-2" data-name="Ellipse 730" transform="translate(246 180)" fill="#fff" stroke="#006838" stroke-width="4" opacity="0.1">
        <circle cx="15" cy="15" r="15" stroke="none"/>
        <circle cx="15" cy="15" r="13" fill="none"/>
      </g>
    </g>
  </g>
</svg>
