<svg xmlns="http://www.w3.org/2000/svg" width="485.23" height="494.582" viewBox="0 0 485.23 494.582">
  <g id="contact" transform="translate(0)">
    <g id="freepik--background-complete--inject-2" transform="translate(34.732 0)">
      <path id="Path_63316" data-name="Path 63316" d="M192.53,35.521a21.2,21.2,0,0,0-5.19-2.232l-1.06-5.123-8.661-.156-1.25,5.089a21.373,21.373,0,0,0-5.257,2.065L166.738,32.3,160.5,38.322l2.712,4.464a21.072,21.072,0,0,0-2.232,5.179l-5.123,1.06-.156,8.661,5.089,1.239a21.2,21.2,0,0,0,2.065,5.257l-2.868,4.386,6.027,6.228,4.464-2.712a21.072,21.072,0,0,0,5.179,2.232l1.116,5.123,8.661.156,1.25-5.089a21.294,21.294,0,0,0,5.245-2.065l4.386,2.868,6.261-6.016-2.712-4.464a21.205,21.205,0,0,0,2.232-5.19l5.123-1.116.156-8.661-5.089-1.25a21.373,21.373,0,0,0-2.065-5.257l2.868-4.386-6.094-6.161Zm-4.62,11.54a8.892,8.892,0,1,1,.045,0Z" transform="translate(106.574 -28.01)" fill="#e0e0e0"/>
      <path id="Path_63317" data-name="Path 63317" d="M184.5,292.731a12.2,12.2,0,0,0-2.991-1.295l-.614-2.958-5-.089-.714,2.935a12.154,12.154,0,0,0-3.036,1.183l-2.522-1.652-3.594,3.471,1.507,2.556a12.2,12.2,0,0,0-1.295,2.991l-2.958.614-.089,5,2.935.714a12.155,12.155,0,0,0,1.183,3.036l-1.652,2.522,3.471,3.594,2.578-1.562A12.678,12.678,0,0,0,174.7,315.1l.647,2.991,5,.089.714-2.935a12.156,12.156,0,0,0,3.036-1.183l2.522,1.652,3.594-3.471-1.562-2.578a12.678,12.678,0,0,0,1.306-2.991l2.946-.614.089-5-2.935-.714a12.154,12.154,0,0,0-1.183-3.036l1.652-2.522-3.471-3.594-2.578,1.562Zm-2.667,6.7a3.79,3.79,0,1,1,0-.045Z" transform="translate(112.6 2.21)" fill="#e0e0e0"/>
      <path id="Path_63318" data-name="Path 63318" d="M82.511,59.733a8.482,8.482,0,0,0-2.042-.893l-.424-2.02h-3.4l-.513,1.942a8.929,8.929,0,0,0-2.076.815l-1.719-1.116-2.455,2.366,1.116,1.763a8.482,8.482,0,0,0-.893,2.042l-2.02.424V68.4l2.009.491a8.415,8.415,0,0,0,.8,2.076L69.776,72.69l2.366,2.455,1.763-1.116a8.482,8.482,0,0,0,2.042.893l.424,2.02h3.348l.491-2.009a8.415,8.415,0,0,0,2.076-.8l1.719,1.116,2.455-2.377-1.116-1.752a8.482,8.482,0,0,0,.893-2.042l2.02-.424.056-3.348-2-.491a8.928,8.928,0,0,0-.815-2.076l1.116-1.719-2.366-2.455-1.763,1.116Zm-1.819,4.542a3.661,3.661,0,1,1-5.179-.089,3.661,3.661,0,0,1,5.179.089Z" transform="translate(323.423 -24.666)" fill="#e0e0e0"/>
      <path id="Path_63319" data-name="Path 63319" d="M240.962,53.609a16.518,16.518,0,0,0-4.029-1.752l-.826-3.984-6.7-.123-.971,3.962a16.451,16.451,0,0,0-4.1,1.607L221,51.087l-4.944,4.754,2.1,3.437a16.361,16.361,0,0,0-1.752,4.04l-4,.826-.112,6.7,3.951.971a16.852,16.852,0,0,0,1.629,4.118l-2.232,3.415,4.676,4.844L223.8,82.08a16.74,16.74,0,0,0,4.029,1.752l.837,3.984,6.7.123.971-3.962a16.373,16.373,0,0,0,4.141-1.6l3.348,2.232,4.855-4.676-2.109-3.482a16.741,16.741,0,0,0,1.752-4.04l3.984-.826.123-6.7-3.962-.971a16.372,16.372,0,0,0-1.607-4.085l2.232-3.415-4.676-4.844Zm-3.594,8.928a3.013,3.013,0,1,0,0,.089Z" transform="translate(-1.633 -25.719)" fill="#ebebeb"/>
      <path id="Path_63320" data-name="Path 63320" d="M405.841,202.881a21,21,0,0,0-5.167-2.232l-1.116-5.123-8.649-.156-1.25,5.089a20.936,20.936,0,0,0-5.257,2.065l-4.364-2.868-6.228,6.016,2.7,4.464a21.662,21.662,0,0,0-2.232,5.179l-5.123,1.116L369,225.08l5.089,1.25a20.859,20.859,0,0,0,2.065,5.245l-2.868,4.375,6,6.161,4.464-2.712a21.206,21.206,0,0,0,5.179,2.232l1.116,5.123,8.649.145,1.25-5.067a21.294,21.294,0,0,0,5.245-2.065l4.375,2.868,6.228-6.016-2.712-4.464a21.006,21.006,0,0,0,2.232-5.167l5.123-1.116.145-8.594-5.078-1.25a21.372,21.372,0,0,0-2.065-5.257l2.868-4.364-6.016-6.228-4.464,2.712Zm-4.609,11.529a9.274,9.274,0,1,1-6.519-2.844,9.286,9.286,0,0,1,6.519,2.844Z" transform="translate(-344.692 -8.586)" fill="#e0e0e0"/>
      <path id="Path_63321" data-name="Path 63321" d="M395,53.662A23.437,23.437,0,1,1,438.638,65.5h0l-.067.089c-.893,1.518-2.02,2.6-3.158,4.185L421.785,87.813a4.23,4.23,0,0,1-6.7,0L401.7,70.079a50.37,50.37,0,0,1-3.4-4.464l-.056-.067h0A23.3,23.3,0,0,1,395,53.662Zm23.437,10.2a10.312,10.312,0,1,0-7.3-3.016,10.312,10.312,0,0,0,7.3,3.016Z" transform="translate(-395 -27.758)" fill="#e0e0e0"/>
      <path id="Path_63322" data-name="Path 63322" d="M69.152,356.289a14.777,14.777,0,0,1-6.038-15.111c1.529-8.024,8.928-13.393,16.395-11.953s12.388,9.1,10.859,17.132A14.743,14.743,0,0,1,79.063,358.22c20.335,7.232,14.944,29.821,14.944,29.821l-49.587-9.42S47.768,355.385,69.152,356.289Z" transform="translate(343.489 6.922)" fill="#ebebeb"/>
      <path id="Path_63323" data-name="Path 63323" d="M86.073,443.683l10.156-2.522s2.109,8.571,11.06,6.529a8.5,8.5,0,0,0,6.7-7.243,9.4,9.4,0,0,0-2.757-8.08c-2.433-2.433-6.875-4.1-13.393-1.183l-5.681-23.024,10.1-2.489,3.348,13.493s15.056.167,18.895,15.77c3.683,14.933-8.85,21.7-14.587,23.1C105.515,459.118,90.326,461.741,86.073,443.683Z" transform="translate(266.491 15.822)" fill="#ebebeb"/>
      <rect id="Rectangle_27176" data-name="Rectangle 27176" width="10.547" height="9.855" transform="matrix(0.971, -0.239, 0.239, 0.971, 355.11, 409.678)" fill="#ebebeb"/>
    </g>
    <g id="freepik--Table--inject-2" transform="translate(0 494.002)">
      <path id="Path_63324" data-name="Path 63324" d="M33.35,470.93c0,.156,108.637.29,242.609.29s242.621-.179,242.621-.29-108.6-.29-242.621-.29S33.35,470.763,33.35,470.93Z" transform="translate(-33.35 -470.64)"/>
    </g>
    <g id="freepik--Text--inject-2" transform="translate(289.395 157.119)">
      <path id="Path_63325" data-name="Path 63325" d="M60.156,223.979H83.471l-2.054,10.458h-42l1.663-8.315,25.279-19.81c6.25-5,8.158-7.924,8.158-11.574s-2.779-6.1-8.158-6.1a15.357,15.357,0,0,0-11.786,5.792l-8.638-6.261c4.464-6.1,12.757-10.145,22.321-10.145,11.73,0,19.408,6.261,19.408,14.9,0,6.574-3,12.12-12.757,19.654Z" transform="translate(-34.23 -167.719)" fill="#263238"/>
      <path id="Path_63326" data-name="Path 63326" d="M134.008,222.7H124.9l-2.3,11.641H110.08l2.377-11.641H82.58l1.663-8.638L116.9,178.87h14.018l-30.424,33.359h14.576l2.065-10.379H129.1l-2.065,10.379h9.118Z" transform="translate(-29.221 -167.62)" fill="#263238"/>
      <path id="Path_63327" data-name="Path 63327" d="M165.692,168.79h11.574L136.54,243.432H125Z" transform="translate(-24.298 -168.79)" fill="#263238"/>
      <path id="Path_63328" data-name="Path 63328" d="M213.847,178.87l-1.663,8.326-29.631,47.142H168.289l28.437-45.011h-17.98l-1.83,9.04H165.51l3.9-19.5Z" transform="translate(-19.596 -167.62)" fill="#263238"/>
      <path id="Path_63329" data-name="Path 63329" d="M34.77,270.607l3.248-6.161a18.236,18.236,0,0,0,9.687,2.868c3.17,0,5-.993,5-2.578,0-3.917-14.152-1.752-14.152-10.9,0-6.283,5.368-10.4,13.984-10.4a20.391,20.391,0,0,1,10.48,2.5l-2.991,6.116a15.045,15.045,0,0,0-7.991-2.232c-3.415,0-5.245,1.25-5.245,2.835,0,4,14.152,1.708,14.152,10.692,0,6.239-5.491,10.357-14.018,10.357C41.924,273.721,37.393,272.393,34.77,270.607Z" transform="translate(-34.77 -160.128)" fill="#263238" opacity="0.47"/>
      <path id="Path_63330" data-name="Path 63330" d="M72.69,250.317l-.949,4.911H84.676l-1.239,6.15H70.491l-1.049,5.335H84.721l-1.339,6.362H60L65.871,244h22.8l-1.295,6.373Z" transform="translate(-31.842 -160.061)" fill="#263238" opacity="0.47"/>
      <path id="Path_63331" data-name="Path 63331" d="M107.009,264.335l4.955,8.739h-8.616l-4.33-7.734H94.867l-1.54,7.734H85.09L90.9,244h12.444c7.444,0,11.73,3.46,11.73,9.286a11.239,11.239,0,0,1-8.069,11.049Zm-4.821-13.895h-4.33l-1.708,8.527h4.911c3.627,0,5.748-1.741,5.748-4.944C106.764,251.567,105.012,250.44,102.188,250.44Z" transform="translate(-28.93 -160.061)" fill="#263238" opacity="0.47"/>
      <path id="Path_63332" data-name="Path 63332" d="M147.741,244l-18.2,29.073h-8.114L114.75,244H123.2l4.163,18.973L139.259,244Z" transform="translate(-25.487 -160.061)" fill="#263238" opacity="0.47"/>
      <path id="Path_63333" data-name="Path 63333" d="M146.479,244h8.248l-5.87,29.073H140.62Z" transform="translate(-22.485 -160.061)" fill="#263238" opacity="0.47"/>
      <path id="Path_63334" data-name="Path 63334" d="M154.41,260.908c0-10.112,7.444-17.478,18.259-17.478,5.368,0,9.743,1.964,11.819,5.491l-5.982,4.743a7.076,7.076,0,0,0-6.406-3.348c-5.658,0-9.408,4.364-9.408,10.1,0,3.917,2.667,6.54,7.12,6.54a9.129,9.129,0,0,0,7.109-3.348l4.866,4.777c-3.281,3.962-7.567,5.413-12.768,5.413C160.113,273.72,154.41,268.519,154.41,260.908Z" transform="translate(-20.884 -160.127)" fill="#263238" opacity="0.47"/>
      <path id="Path_63335" data-name="Path 63335" d="M193.445,250.317l-.96,4.911H205.42l-1.205,6.15h-12.98l-1.038,5.335h15.268l-1.328,6.362H180.8L186.6,244h22.8l-1.283,6.373Z" transform="translate(-17.822 -160.061)" fill="#263238" opacity="0.47"/>
    </g>
    <g id="freepik--Stopwatch--inject-2" transform="translate(302.72 35.625)" opacity="0.31">
      <path id="Path_63336" data-name="Path 63336" d="M197.831,173.771h16.261c0-22.634-9.163-45.759-25.134-63.5C172.15,91.618,150.331,81.35,127.575,81.35c-46.506,0-78.995,33.951-78.995,82.589H64.808c0-39.654,25.212-66.294,62.734-66.294C164.327,97.611,197.831,133.905,197.831,173.771Z" transform="translate(-48.58 -57.444)" fill="#006838"/>
      <path id="Path_63337" data-name="Path 63337" d="M71.619,160.111c-2.6,0-4.71.257-4.7.491s2.109.413,4.7.413,4.71-.212,4.71-.491S74.208,160.066,71.619,160.111Z" transform="translate(68.715 -48.304)" fill="#263238"/>
      <path id="Path_63338" data-name="Path 63338" d="M80.708,128.365c-2.232,1.429-3.739,2.891-3.493,3.281s2.232-.4,4.464-1.752,3.716-2.835,3.482-3.281S82.884,126.948,80.708,128.365Z" transform="translate(48.398 -52.205)" fill="#263238"/>
      <path id="Path_63339" data-name="Path 63339" d="M104.983,106.565c-1.06,2.377-1.585,4.464-1.116,4.643s1.663-1.551,2.8-3.884,1.663-4.464,1.116-4.643S106.033,104.155,104.983,106.565Z" transform="translate(-4.002 -54.97)" fill="#263238"/>
      <path id="Path_63340" data-name="Path 63340" d="M138.151,104.037c.647,2.522,1.529,4.464,1.964,4.375s.346-2.232-.212-4.788-1.429-4.464-1.964-4.364S137.5,101.526,138.151,104.037Z" transform="translate(-74.223 -55.366)" fill="#263238"/>
      <path id="Path_63341" data-name="Path 63341" d="M166.164,122.969c2.165,1.429,4.118,2.3,4.375,1.942s-1.25-1.9-3.348-3.426-4.062-2.388-4.375-1.942S164,121.529,166.164,122.969Z" transform="translate(-132.504 -53.025)" fill="#263238"/>
      <path id="Path_63342" data-name="Path 63342" d="M176.15,154.094c2.589,0,4.7-.2,4.7-.424s-2.1-.446-4.7-.48-4.7.156-4.71.424S173.527,154.094,176.15,154.094Z" transform="translate(-152.456 -49.107)" fill="#263238"/>
      <path id="Path_63343" data-name="Path 63343" d="M134.752,162.6a3.549,3.549,0,0,0,2.232-.77l27.332-21.205a3.626,3.626,0,0,0-4.464-5.714l-24.933,19.33-34.43-31.618a3.617,3.617,0,0,0-4.922,5.3l36.685,33.705A3.638,3.638,0,0,0,134.752,162.6Z" transform="translate(-51.349 -52.766)" fill="#006838"/>
      <rect id="Rectangle_27177" data-name="Rectangle 27177" width="33.102" height="13.114" rx="0.79" transform="translate(63.984)" fill="#006838"/>
      <rect id="Rectangle_27178" data-name="Rectangle 27178" width="17.109" height="15.513" transform="translate(71.986 6.562)" fill="#006838"/>
      <rect id="Rectangle_27179" data-name="Rectangle 27179" width="23.337" height="14.174" rx="1.29" transform="matrix(-0.628, -0.778, 0.778, -0.628, 153.889, 66.074)" fill="#006838"/>
      <path id="Path_63344" data-name="Path 63344" d="M110.76,71.715c0,.19,7.02.335,15.625.335s15.625-.145,15.625-.335S135,71.38,126.385,71.38,110.76,71.536,110.76,71.715Z" transform="translate(-45.894 -58.601)" fill="#263238"/>
      <path id="Path_63345" data-name="Path 63345" d="M51.664,116.516c.179.2,2.545-1.607,5.469-3.806s5.3-3.984,5.156-4.208-2.768,1.228-5.725,3.449S51.5,116.326,51.664,116.516Z" transform="translate(99.786 -54.295)" fill="#263238"/>
      <path id="Path_63346" data-name="Path 63346" d="M54.094,112.926c.179.2,2.545-1.607,5.469-3.806s5.312-3.984,5.167-4.208-2.779,1.228-5.737,3.46S53.926,112.736,54.094,112.926Z" transform="translate(94.633 -54.712)" fill="#263238"/>
      <path id="Path_63347" data-name="Path 63347" d="M57.1,109.916c.167.2,2.533-1.607,5.458-3.806s5.268-3.984,5.167-4.208-2.779,1.228-5.725,3.46S56.919,109.726,57.1,109.916Z" transform="translate(88.292 -55.061)" fill="#263238"/>
      <path id="Path_63348" data-name="Path 63348" d="M60,106.326c.167.2,2.545-1.607,5.469-3.806s5.3-3.984,5.145-4.208-2.779,1.228-5.725,3.46S59.835,106.136,60,106.326Z" transform="translate(82.15 -55.478)" fill="#263238"/>
      <rect id="Rectangle_27180" data-name="Rectangle 27180" width="23.337" height="14.174" rx="1.29" transform="translate(27.117 38.618) rotate(132.55)" fill="#006838"/>
      <path id="Path_63349" data-name="Path 63349" d="M185.175,98.189c.167-.2-1.964-2.232-4.576-4.844s-4.721-4.654-4.922-4.464,1.618,2.567,4.263,5.156S185.018,98.379,185.175,98.189Z" transform="translate(-161.503 -56.571)" fill="#263238"/>
      <path id="Path_63350" data-name="Path 63350" d="M188.363,101.129c.179-.2-1.964-2.232-4.565-4.844s-4.732-4.654-4.933-4.464,1.629,2.567,4.263,5.156S188.207,101.319,188.363,101.129Z" transform="translate(-168.252 -56.23)" fill="#263238"/>
      <path id="Path_63351" data-name="Path 63351" d="M190.893,104.539c.179-.2-1.964-2.232-4.565-4.844s-4.732-4.654-4.933-4.464,1.629,2.556,4.275,5.145S190.737,104.729,190.893,104.539Z" transform="translate(-173.606 -55.834)" fill="#263238"/>
      <path id="Path_63352" data-name="Path 63352" d="M194.013,107.969c.179-.2-1.964-2.232-4.565-4.844s-4.732-4.654-4.933-4.464,1.629,2.567,4.275,5.156S193.857,108.125,194.013,107.969Z" transform="translate(-180.208 -55.436)" fill="#263238"/>
      <path id="Path_63353" data-name="Path 63353" d="M113.89,73.015c.257,0,.469-2.9.469-6.462s-.212-6.473-.469-6.473-.48,2.9-.48,6.473S113.622,73.015,113.89,73.015Z" transform="translate(-21.201 -59.913)" fill="#263238"/>
      <path id="Path_63354" data-name="Path 63354" d="M119.379,73.015c.257,0,.469-2.9.469-6.462s-.212-6.473-.469-6.473-.469,2.9-.469,6.473S119.122,73.015,119.379,73.015Z" transform="translate(-32.828 -59.913)" fill="#263238"/>
      <path id="Path_63355" data-name="Path 63355" d="M124.869,73.015c.257,0,.469-2.9.469-6.462s-.212-6.473-.469-6.473-.469,2.9-.469,6.473S124.6,73.015,124.869,73.015Z" transform="translate(-44.445 -59.913)" fill="#263238"/>
      <path id="Path_63356" data-name="Path 63356" d="M130.369,73.015c.268,0,.469-2.9.469-6.462s-.2-6.473-.469-6.473-.469,2.9-.469,6.473S130.112,73.015,130.369,73.015Z" transform="translate(-56.084 -59.913)" fill="#263238"/>
      <path id="Path_63357" data-name="Path 63357" d="M135.859,73.015c.257,0,.469-2.9.469-6.462s-.212-6.473-.469-6.473-.469,2.9-.469,6.473S135.647,73.015,135.859,73.015Z" transform="translate(-67.701 -59.913)" fill="#263238"/>
      <circle id="Ellipse_741" data-name="Ellipse 741" cx="8.192" cy="8.192" r="8.192" transform="translate(82.561 116.558) rotate(-135)" fill="#006838"/>
      <path id="Path_63358" data-name="Path 63358" d="M115.173,154.889c.078,0,.067-.725.413-1.964a8.125,8.125,0,0,1,3-4.308,7.812,7.812,0,1,1,0,12.545,8.17,8.17,0,0,1-3-4.308c-.346-1.239-.335-1.964-.413-1.964s0,.179,0,.525a5.581,5.581,0,0,0,.156,1.518,8.125,8.125,0,0,0,2.946,4.7,8.46,8.46,0,0,0,8.058,1.317,8.54,8.54,0,1,0-8.058-14.81,8.169,8.169,0,0,0-2.946,4.71,5.58,5.58,0,0,0-.156,1.518C115.118,154.688,115.14,154.889,115.173,154.889Z" transform="translate(-40.799 -49.901)" fill="#263238"/>
    </g>
    <g id="freepik--speech-bubble--inject-2" transform="translate(6.08 82.368)">
      <path id="Path_63359" data-name="Path 63359" d="M468.918,188.1l-14-2.232a47.209,47.209,0,1,1,11.038-12.79h0Z" transform="translate(-378.068 -101.8)" fill="#fff"/>
      <path id="Path_63360" data-name="Path 63360" d="M468.615,188.115a4.508,4.508,0,0,0-.156-.949l-.536-2.857c-.48-2.567-1.194-6.328-2.121-11.239a.112.112,0,0,0-.145-.089.067.067,0,0,0-.067,0h0l.2.156a47.365,47.365,0,0,0,6.574-22.2,46.374,46.374,0,0,0-.279-7.3,51.21,51.21,0,0,0-1.585-7.667,47.216,47.216,0,0,0-80.725-18.248l-1.9,2.232c-.592.781-1.116,1.6-1.7,2.377a46.865,46.865,0,0,0-3,4.955c-.491.826-.8,1.741-1.216,2.6a18.829,18.829,0,0,0-1.116,2.634,44.538,44.538,0,0,0-1.641,5.424,48.225,48.225,0,0,0-.167,21.786,47.343,47.343,0,0,0,39.564,36.25,51.34,51.34,0,0,0,7.868.458,61.753,61.753,0,0,0,7.288-.781,46.762,46.762,0,0,0,20.937-9.687h-.1l10.469,1.574,2.667.391.882.123-.926-.167-2.69-.446-10.357-1.719h-.1a46.752,46.752,0,0,1-20.848,9.5,58.673,58.673,0,0,1-7.232.748,50.558,50.558,0,0,1-7.812-.48,47,47,0,0,1-39.062-35.937,47.744,47.744,0,0,1,.19-21.529,49.1,49.1,0,0,1,1.618-5.357,28.055,28.055,0,0,1,1.116-2.6,21.509,21.509,0,0,1,1.205-2.567,44.545,44.545,0,0,1,2.969-4.888c.558-.781,1.116-1.585,1.674-2.355l1.875-2.232a46.674,46.674,0,0,1,79.8,18.114,51.728,51.728,0,0,1,1.6,7.589,45.755,45.755,0,0,1,.313,7.243,47.23,47.23,0,0,1-6.373,22.087.114.114,0,0,0,.156.167h0l-.2-.067c.982,4.855,1.741,8.583,2.232,11.161.257,1.261.458,2.232.591,2.879A4.179,4.179,0,0,0,468.615,188.115Z" transform="translate(-377.765 -101.812)" fill="#263238"/>
      <path id="Path_63361" data-name="Path 63361" d="M442.736,145.979a4.788,4.788,0,1,0-4.777,4.777A4.788,4.788,0,0,0,442.736,145.979Z" transform="translate(-409.799 -97.243)" fill="#263238"/>
      <path id="Path_63362" data-name="Path 63362" d="M425.576,145.979a4.788,4.788,0,1,0-4.788,4.777,4.788,4.788,0,0,0,4.788-4.777Z" transform="translate(-373.487 -97.243)" fill="#263238"/>
      <path id="Path_63363" data-name="Path 63363" d="M407.249,148.367a4.788,4.788,0,1,0-6.54,1.752A4.788,4.788,0,0,0,407.249,148.367Z" transform="translate(-336.065 -97.243)" fill="#263238"/>
    </g>
    <g id="freepik--Character--inject-2" transform="translate(14.698 51.218)">
      <path id="Path_63364" data-name="Path 63364" d="M77.69,299.688c2.935-1.4,7.879-4.308,10.937-5.446a14.509,14.509,0,0,1,9.565-.647c1.8.6,3.594,2.042,3.6,3.94l-12,8.85L77.69,303.192Z" transform="translate(319.248 -48.465)" fill="#ff9a6c"/>
      <path id="Path_63365" data-name="Path 63365" d="M84.249,300.734s21.551-4.676,25.145-6.518S131.715,283,134.851,283s5.815.848,6.384,3.973l-4.1,3.181-.525,1.629-7.009,3.65-1.239,2.3-17.857,9.531s-18.728,9.509-21.852,10.045-18.728,1.841-25.4,7.522l-26.785-11s7.734-10.982,13.694-13.694c5.312-2.411,14.23-2.411,20.469.145Z" transform="translate(325.815 -49.634)" fill="#ffbf9d"/>
      <path id="Path_63366" data-name="Path 63366" d="M182.6,315.53s-34.1,74.352-39.587,89.285c0,0-38.113-6.272-39.419-27.422L152.7,310.43Z" transform="translate(209.543 -46.45)" fill="#ffbf9d"/>
      <path id="Path_63367" data-name="Path 63367" d="M47.41,301.524h.368a5.073,5.073,0,0,0,1.027-.212,21.972,21.972,0,0,0,3.549-1.429c1.451-.7,3.136-1.629,4.989-2.667.926-.513,1.9-1.06,2.913-1.585s2.121-.982,3.248-1.473a44.74,44.74,0,0,1,6.451-2.344c2.02-.5,3.962-.882,5.424-.391a4.464,4.464,0,0,1,2.5,2.522,11.978,11.978,0,0,0,.569,1.272,1.639,1.639,0,0,0-.056-.357,6.842,6.842,0,0,0-.3-1,6.2,6.2,0,0,0-.792-1.462,3.839,3.839,0,0,0-1.741-1.362,6.083,6.083,0,0,0-2.69-.268,20.458,20.458,0,0,0-3,.525,43.016,43.016,0,0,0-6.585,2.321c-1.116.491-2.232.949-3.27,1.5s-2,1.116-2.924,1.641c-1.841,1.06-3.493,2.02-4.911,2.757a28.043,28.043,0,0,1-3.4,1.574C47.9,301.4,47.41,301.468,47.41,301.524Z" transform="translate(376.392 -48.738)" fill="#ff9a6c"/>
      <path id="Path_63368" data-name="Path 63368" d="M40.575,291.321a11.931,11.931,0,0,0,3.025-1.049,61.726,61.726,0,0,1,7.087-2.824,10.748,10.748,0,0,1,4.074-.346,4.029,4.029,0,0,1,2.879,1.339,4.721,4.721,0,0,1,.837,2.042,2.645,2.645,0,0,0,.167.837,2.377,2.377,0,0,0,0-.859,4.464,4.464,0,0,0-.737-2.232,3.817,3.817,0,0,0-1.295-1.116,5.758,5.758,0,0,0-1.853-.525,10.826,10.826,0,0,0-4.3.324,42.411,42.411,0,0,0-7.1,3.013,29.029,29.029,0,0,0-2.79,1.4Z" transform="translate(403.785 -49.227)" fill="#ff9a6c"/>
      <path id="Path_63369" data-name="Path 63369" d="M83.66,297a5.385,5.385,0,0,0,.871.379,25.6,25.6,0,0,0,2.489.759A40.179,40.179,0,0,0,95.49,299.4a41.6,41.6,0,0,0,8.549-.513,24.656,24.656,0,0,0,2.533-.547,2.78,2.78,0,0,0,.9-.3c0-.089-1.339.167-3.5.435a51.561,51.561,0,0,1-8.46.346,52.713,52.713,0,0,1-8.4-1.116C85.044,297.3,83.738,296.923,83.66,297Z" transform="translate(306.906 -48.01)" fill="#ff9a6c"/>
      <path id="Path_63370" data-name="Path 63370" d="M140.162,259.475l49.6-10.268L202.036,240l65.513,12.634c1.049,1.92,11.663,16.741,11.663,16.741l25.8,8.761a54.263,54.263,0,0,1,27.991,17.857,115.323,115.323,0,0,1,16.741,28.013c11.607,27.243,28.359,58.716,28.359,58.716l10.5-16.919,44.263,20.848s-25.926,52.265-34.509,59.732c-9.542,8.292-31.484,9.252-46.651-6.216-9.141-9.33-35.558-46.2-41.06-55.435l-8.17,38.593-7.511,44.051L307.113,497.7H129.883l7.333-28.66s-7.221-74.7-9.219-88.6C123.3,347.633,140.162,259.475,140.162,259.475Z" transform="translate(-67.049 -54.624)" fill="#006838"/>
      <path id="Path_63371" data-name="Path 63371" d="M458.583,257.45s-35.491,9.955-43.3,45.234c-4.732,21.373-20.8,82.3-26.462,132.454-3.348,29.821-3.259,57.377-3.348,60.535h54.464l23.08-228.268Z" transform="translate(-385.47 -52.599)" fill="#006838"/>
      <path id="Path_63372" data-name="Path 63372" d="M265.54,286.491a.8.8,0,0,0,.145.368l.5,1.027c.446.9,1.116,2.232,1.841,3.917,1.574,3.348,3.426,8.315,6.417,13.862l.145.279.246-.212c3.683-3.136,7.678-6.908,11.808-10.982,7.31-7.254,13.716-14.007,18.448-18.794l5.636-5.658,1.551-1.529a3.926,3.926,0,0,0,.513-.558,3.2,3.2,0,0,0-.591.48l-1.607,1.451c-1.384,1.272-3.348,3.158-5.77,5.525-4.81,4.721-11.272,11.428-18.56,18.672-4.129,4.074-8.1,7.812-11.741,11l.4.067c-3.013-5.469-4.933-10.413-6.585-13.739-.815-1.685-1.5-2.98-1.987-3.862-.223-.391-.413-.725-.569-.982a1.945,1.945,0,0,0-.246-.335Z" transform="translate(-101.401 -51.35)"/>
      <path id="Path_63373" data-name="Path 63373" d="M314.039,249.38a3.448,3.448,0,0,0,.1.781c.112.558.246,1.295.413,2.232.4,1.92,1.116,4.687,2.031,8.058,1.931,6.7,5.056,15.949,8.928,25.937,2.042,5.29,4.051,10.29,5.926,14.721l.145.346.279-.246c5.056-4.464,9.587-7.98,12.656-10.591,1.54-1.306,2.746-2.355,3.56-3.091l.9-.848c.212-.2.313-.3.3-.312a1.8,1.8,0,0,0-.357.246l-.96.792-3.65,2.969c-3.136,2.545-7.7,5.993-12.812,10.435l.424.1c-1.841-4.464-3.839-9.442-5.87-14.721-3.828-10.045-7.009-19.14-9.029-25.848-1-3.348-1.741-6.094-2.232-8-.212-.9-.391-1.629-.525-2.232A5.078,5.078,0,0,0,314.039,249.38Z" transform="translate(-192.02 -53.536)"/>
      <path id="Path_63374" data-name="Path 63374" d="M233.386,410.636a.813.813,0,0,0,.1-.245l.234-.759q.3-1.116.837-2.946c.379-1.272.748-2.846,1.194-4.676s.926-3.928,1.406-6.25a307.421,307.421,0,0,0,5.2-36.674c1.261-14.431,1.54-27.544,1.473-37.02,0-4.743-.123-8.583-.257-11.228-.067-1.295-.112-2.31-.145-3.058a3.339,3.339,0,0,0-.056-.792,1.027,1.027,0,0,0,0-.268,1.421,1.421,0,0,0,0,.279v3.839c0,2.656.089,6.484.067,11.228,0,9.464-.379,22.567-1.641,36.964a338.011,338.011,0,0,1-5.022,36.652c-.458,2.321-.882,4.464-1.317,6.25s-.759,3.426-1.116,4.7l-.737,2.969-.167.77C233.386,410.547,233.374,410.636,233.386,410.636Z" transform="translate(3.443 -46.881)"/>
      <path id="Path_63375" data-name="Path 63375" d="M402.851,292.51a1.258,1.258,0,0,0-.156.313c-.1.234-.234.536-.391.915-.357.848-.837,2.042-1.462,3.549-.312.781-.681,1.629-1.038,2.578l-1.06,3.125c-.379,1.116-.781,2.333-1.216,3.6s-.725,2.667-1.116,4.107c-3.348,11.484-5.022,28.1-4.062,46.283s3.1,34.6,4.464,46.383c.681,5.893,1.239,10.681,1.629,14.029.19,1.618.346,2.9.458,3.806l.134.993a1.349,1.349,0,0,0,.067.335,1.26,1.26,0,0,0,0-.335l-.078-1c-.089-.915-.212-2.232-.357-3.817-.312-3.348-.8-8.125-1.44-14.051-1.217-11.853-3.27-28.214-4.252-46.361s.67-34.676,3.873-46.16l1.116-4.107,1.116-3.594c.357-1.116.692-2.176,1-3.136s.692-1.819.993-2.6c.58-1.529,1.027-2.723,1.362-3.583.134-.391.246-.692.335-.937A1.118,1.118,0,0,0,402.851,292.51Z" transform="translate(-332.684 -48.53)"/>
      <path id="Path_63376" data-name="Path 63376" d="M176.3,405.876c.156,0,.346-8.5.413-18.973s0-18.973-.167-18.973-.346,8.5-.413,18.973S176.133,405.876,176.3,405.876Z" transform="translate(134.467 -39.776)"/>
      <path id="Path_63377" data-name="Path 63377" d="M318.4,466.758v-.469c0-.335-.089-.781-.156-1.362-.156-1.228-.368-2.98-.647-5.234-.145-1.116-.3-2.4-.48-3.772s-.312-2.891-.48-4.464c-.324-3.237-.77-6.908-1.116-10.993-.167-2.031-.335-4.174-.525-6.4s-.279-4.542-.424-6.942c-.335-4.8-.48-9.944-.67-15.346-.246-10.815-.212-22.712.346-35.178s1.7-24.319,2.958-35.067c.7-5.368,1.317-10.469,2.109-15.212.368-2.377.692-4.676,1.116-6.875s.77-4.308,1.116-6.328c.681-4.029,1.462-7.645,2.1-10.837.324-1.6.614-3.08.893-4.464s.58-2.6.837-3.716l1.116-5.145c.112-.569.212-1.016.279-1.339a4.276,4.276,0,0,0,.078-.469,2.91,2.91,0,0,0-.134.446l-.346,1.328-1.239,5.134-.882,3.705c-.29,1.362-.6,2.835-.949,4.464-.658,3.181-1.473,6.8-2.176,10.826q-.558,3.025-1.116,6.328c-.4,2.232-.725,4.464-1.116,6.875-.8,4.754-1.44,9.855-2.165,15.223-1.283,10.759-2.377,22.623-3,35.1s-.58,24.4-.3,35.223c.212,5.413.368,10.558.725,15.357.156,2.4.268,4.721.458,6.953s.391,4.364.569,6.406c.313,4.085.792,7.812,1.116,10.982.19,1.618.368,3.125.525,4.464s.368,2.634.536,3.772c.324,2.232.58,4,.748,5.212l.212,1.362A2.672,2.672,0,0,0,318.4,466.758Z" transform="translate(-168.683 -49.152)"/>
      <path id="Path_63378" data-name="Path 63378" d="M394.518,340.7h-.223l-.7-.078-2.734-.312L380.4,339.192l-37.221-3.862H342.9v.279c-.279,11.261-.614,24.006-.96,37.522v.123l.078.078,4.464,4.833,16.272,17.388.145.156.19-.1,27.422-13.616.123-.056v-.1c1.194-12.444,2.232-22.734,2.868-29.955.335-3.549.592-6.339.77-8.27.078-.926.145-1.641.19-2.165a2.669,2.669,0,0,0,0-.714,4.236,4.236,0,0,1-.1.759c-.1.491-.145,1.261-.257,2.232-.2,1.953-.5,4.754-.893,8.326-.748,7.165-1.808,17.4-3.1,29.777l.134-.19-27.455,13.538.324.056-16.239-17.455-4.464-4.821.078.2c.324-13.515.636-26.25.9-37.522l-.29.246,37.109,3.549,10.524.982,2.8.246.725.067Z" transform="translate(-268.392 -43.56)"/>
      <path id="Path_63379" data-name="Path 63379" d="M343.75,347.18a11.93,11.93,0,0,0,1.931.368c1.25.2,3.058.458,5.3.748,4.464.569,10.7,1.228,17.567,1.886l17.589,1.719,5.324.558a11.5,11.5,0,0,0,1.953.145,11.925,11.925,0,0,0-1.931-.368c-1.25-.2-3.058-.458-5.3-.748-4.464-.569-10.7-1.228-17.578-1.886l-17.578-1.719-5.324-.558A11.5,11.5,0,0,0,343.75,347.18Z" transform="translate(-269.309 -42.185)"/>
      <g id="Group_174200" data-name="Group 174200" transform="translate(52.047 254.181)" opacity="0.3">
        <path id="Path_63380" data-name="Path 63380" d="M407.183,396.359l-1.875,22.8c-4.141-19.531-10.647-40.524-9.632-60.457s2.891-39.006,14.118-57.053a113.28,113.28,0,0,0-6.6,42.41C404.225,367.386,407.183,396.359,407.183,396.359Z" transform="translate(-395.57 -301.65)"/>
      </g>
      <path id="Path_63381" data-name="Path 63381" d="M125.035,348.827a6.4,6.4,0,0,1,3.013-3.158c1.562-.536,3.259.223,4.743.96l40.491,20.156c2.667,1.328,5.58,2.9,6.562,5.692,1.283,3.571-1.116,7.344-3.348,10.413-3.728,5.123-8.192,10.7-14.509,11.428l-34.832-23.884c-4.252-.625-6.9-5.368-6.7-9.665S122.87,352.555,125.035,348.827Z" transform="translate(193.121 -42.381)" fill="#006838"/>
      <path id="Path_63382" data-name="Path 63382" d="M136.01,361.56a2.234,2.234,0,0,0,.357.391l1.116,1.038c.96.893,2.377,2.154,4.152,3.672,3.56,3.047,8.616,7.1,14.509,11.228s11.283,7.533,15.379,9.832c2.031,1.172,3.694,2.087,4.855,2.69l1.339.681c.312.156.48.223.491.2a1.752,1.752,0,0,0-.435-.3l-1.283-.781-4.754-2.846c-4.007-2.411-9.464-5.87-15.29-9.989s-10.915-8.1-14.509-11.06l-4.275-3.538-1.116-.949A5.8,5.8,0,0,0,136.01,361.56Z" transform="translate(177.748 -40.516)"/>
      <g id="Group_174201" data-name="Group 174201" transform="translate(121.634 198.4)" opacity="0.3">
        <path id="Path_63383" data-name="Path 63383" d="M316.13,251.67c4.766,15.826,11.44,33.727,17.076,49.107,4.8-4.074,11.518-9.464,16.328-13.549A134.71,134.71,0,0,1,334.7,310.408c-.67.837-1.562,1.752-2.6,1.551s-1.507-1.272-1.864-2.232l-8.783-23.248C317.346,275.61,313.384,262.931,316.13,251.67Z" transform="translate(-315.22 -251.67)"/>
      </g>
      <path id="Path_63384" data-name="Path 63384" d="M322.542,97.573c-14.509-4.174-28.08,0-41.462,6.942s-24.174,18.4-31.16,31.741c-7.366,14.051-10.625,30.424-7.958,46.06s11.507,30.368,24.743,39.062c18.091,11.92,43.024,11.295,61.651.257s30.893-31.384,34.14-52.8c2.232-14.754.424-30.312-6.462-43.526s-19.062-23.928-33.482-27.745" transform="translate(-124.664 -71.348)" fill="#263238"/>
      <path id="Path_63385" data-name="Path 63385" d="M232.985,142.8c2.8-5.391,2.679-11.786,4.208-17.678,3.348-12.957,15.178-22.321,28.035-26.06,11.953-3.493,25.781-.871,39.062,5.134,9.085,4.118,17.355,10.435,22.779,18.806a41.64,41.64,0,0,1,3.348,38.013l-66.283-17.433c-6.9,4.464-13.962,9.074-21.942,11.161a14.219,14.219,0,0,1-7.165.324,6.317,6.317,0,0,1-4.743-4.922C230.005,147.489,231.769,145.156,232.985,142.8Z" transform="translate(-82.741 -71.163)" fill="#263238"/>
      <path id="Path_63386" data-name="Path 63386" d="M233.5,257.685,250.61,137.351c.759-5.692,3.348-11.5,9.074-11.228l60.267-5.8c18.884.871,27.745,25.669,26.071,44.453-1.864,20.915-4.955,46.372-9.766,61.461-9.676,30.323-34.107,30.636-34.107,30.636s-1.484,6.027-3.348,17.3L259.74,300.151Z" transform="translate(-99.071 -68.514)" fill="#ffbf9d"/>
      <path id="Path_63387" data-name="Path 63387" d="M254.757,181.1a4.029,4.029,0,0,1-4.464,3.426,3.85,3.85,0,0,1-3.56-4.219,4.051,4.051,0,0,1,4.464-3.437,3.873,3.873,0,0,1,3.56,4.23Z" transform="translate(-22.371 -61.954)" fill="#263238"/>
      <path id="Path_63388" data-name="Path 63388" d="M256.067,171.783c-.569.446-3.248-2.232-7.545-2.891s-7.757,1.027-8.147.424c-.19-.268.458-1.116,1.975-1.92a11.161,11.161,0,0,1,6.618-.982,10.592,10.592,0,0,1,5.9,2.958C256.045,170.577,256.346,171.548,256.067,171.783Z" transform="translate(-16.65 -63.181)" fill="#263238"/>
      <path id="Path_63389" data-name="Path 63389" d="M290.287,175.322a4.029,4.029,0,0,1-4.464,3.438,3.85,3.85,0,0,1-3.56-4.219,4.029,4.029,0,0,1,4.464-3.437,3.862,3.862,0,0,1,3.56,4.219Z" transform="translate(-97.555 -62.624)" fill="#263238"/>
      <path id="Path_63390" data-name="Path 63390" d="M292.626,166.693c-.569.446-3.259-2.232-7.545-2.891s-7.757,1.027-8.147.424c-.19-.268.458-1.116,1.975-1.92a11.161,11.161,0,0,1,6.629-.982,10.636,10.636,0,0,1,5.971,3C292.626,165.443,292.927,166.559,292.626,166.693Z" transform="translate(-94.022 -63.771)" fill="#263238"/>
      <path id="Path_63391" data-name="Path 63391" d="M258.459,200.535c0-.246,2.757-.3,7.154-.19,1.116,0,2.232,0,2.489-.725a6.827,6.827,0,0,0-.234-3.348q-.937-4.208-1.975-8.828c-2.679-12.567-4.464-22.823-3.94-22.924s3.091,10.045,5.781,22.544c.636,3.091,1.25,6.049,1.819,8.873.223,1.306.725,2.824-.089,4.375a2.723,2.723,0,0,1-2.042,1.328,7.064,7.064,0,0,1-1.9,0C261.137,201.172,258.436,200.77,258.459,200.535Z" transform="translate(-50.615 -63.385)" fill="#263238"/>
      <path id="Path_63392" data-name="Path 63392" d="M312.933,244.489A79.932,79.932,0,0,1,273,227s9.743,24.386,37.946,26.841Z" transform="translate(-109.865 -56.133)" fill="#ff9a6c"/>
      <path id="Path_63393" data-name="Path 63393" d="M284.712,206.22a7.813,7.813,0,0,0-6.484-3.929,7.132,7.132,0,0,0-5.279,1.908,4.531,4.531,0,0,0-1.116,5.067c.9,1.8,3.27,2.545,5.4,2.232a16.406,16.406,0,0,0,5.982-2.433,4.7,4.7,0,0,0,1.417-1.116,1.451,1.451,0,0,0,.246-1.6" transform="translate(-80.261 -59.002)" fill="#ff9a6c"/>
      <path id="Path_63394" data-name="Path 63394" d="M270.873,197.72c.714.067,0,4.732,3.493,8.638s8.5,4.163,8.449,4.81c0,.313-1.25.737-3.348.48a11.73,11.73,0,0,1-7.1-3.761,10.189,10.189,0,0,1-2.623-7.187C269.869,198.725,270.561,197.653,270.873,197.72Z" transform="translate(-76.109 -59.532)" fill="#263238"/>
      <path id="Path_63395" data-name="Path 63395" d="M295.721,155.127c-.6,1.116-4.8-.1-9.922-.268s-9.408.592-9.911-.558c-.223-.547.647-1.529,2.466-2.411a17.277,17.277,0,0,1,15.111.625C295.2,153.542,295.989,154.6,295.721,155.127Z" transform="translate(-95.89 -65.018)" fill="#263238"/>
      <path id="Path_63396" data-name="Path 63396" d="M253.317,154.833c-.9.859-3.705-.6-7.254-1.194s-6.7-.346-7.187-1.473c-.234-.547.391-1.44,1.841-2.165a10.658,10.658,0,0,1,11.641,2.143C253.485,153.337,253.741,154.409,253.317,154.833Z" transform="translate(-12.304 -65.17)" fill="#263238"/>
      <path id="Path_63397" data-name="Path 63397" d="M261.559,132.526c8.125-17.232,37.522-38.627,56.182-34.8l27.667,22.053a29.274,29.274,0,0,1-22.656,19.6c-5.525.915-12,.5-15.77,4.654s-2.868,11.295-6.518,15.7c-5.056,6.116-16.395,4.286-20.48,11.094-1.8,2.969-1.585,6.83-3.415,9.777-2.455,3.917-13.716,7.812-17.857,5.826s-3.2-9.4-4.107-13.493c-1.551-6.975-.078-10.29,1.216-13.906C258.847,150.461,257.675,140.74,261.559,132.526Z" transform="translate(-121.07 -71.189)" fill="#263238"/>
      <path id="Path_63398" data-name="Path 63398" d="M344.1,183.04c.346-2.321-1.5-8.181-3.728-8.928-5.96-1.875-17.042-3.069-19.509,12.422-3.348,21.205,18.571,20.19,18.716,19.587S342.891,191.009,344.1,183.04Z" transform="translate(-194.098 -62.396)" fill="#ffbf9d"/>
      <path id="Path_63399" data-name="Path 63399" d="M336.85,196.389c-.089-.089-.413.2-1.116.379a3.683,3.683,0,0,1-2.768-.379c-2.1-1.172-3.415-5.022-2.913-8.862a12.344,12.344,0,0,1,1.875-5.112,4.3,4.3,0,0,1,3.225-2.388,1.886,1.886,0,0,1,2.009,1.362c.19.636,0,1.038.1,1.116s.5-.279.48-1.183a2.377,2.377,0,0,0-.625-1.451,2.8,2.8,0,0,0-1.953-.871c-1.652-.145-3.348,1.116-4.375,2.667a12.779,12.779,0,0,0-2.232,5.7c-.547,4.286,1,8.627,3.929,10.045a4.029,4.029,0,0,0,3.46,0C336.727,196.858,336.917,196.434,336.85,196.389Z" transform="translate(-196.561 -61.705)" fill="#ff9a6c"/>
      <path id="Path_63400" data-name="Path 63400" d="M224.675,111.054c.971,8.928,12.879,21.484,17.857,28.884,9.565,14.118,11.261,18.638,7.891,47.388,6.339-9.341,11.428-18.627,12.277-29.888s-1.987-22.946-8.862-31.9S235.9,110.7,224.619,111.031" transform="translate(-5.782 -69.594)" fill="#263238"/>
      <path id="Path_63401" data-name="Path 63401" d="M371.026,85.083c-4.464-4.922-10.915-8.125-17.611-9.8-9.542-2.388-20.022-1.741-28.705,2.411s-15.4,11.942-17.154,20.87a25.67,25.67,0,0,0,9.241,24.821,43,43,0,0,1-17.645,10.335c1.808,2.712,5.145,4.3,8.516,4.866a39.062,39.062,0,0,0,10.2-.067,17.589,17.589,0,0,1-9.754,7.12,32.366,32.366,0,0,0,16.618-.547,64.632,64.632,0,0,0,15.033-6.752c16.328-9.475,25.335-17.779,36.361-32.366C377.566,99.681,375.523,90.016,371.026,85.083Z" transform="translate(-202.701 -73.902)" fill="#263238"/>
      <path id="Path_63402" data-name="Path 63402" d="M298.89,127.1c11.986-17.511,27.243-26.875,41.049-29.788" transform="translate(-165.766 -71.185)" fill="#263238"/>
      <path id="Path_63403" data-name="Path 63403" d="M339.939,97.31a11.786,11.786,0,0,1-1.953.592c-1.261.357-3.08.9-5.268,1.741a64.876,64.876,0,0,0-15.9,8.928,81.662,81.662,0,0,0-13.192,12.623c-1.473,1.819-2.667,3.348-3.437,4.353a11.585,11.585,0,0,1-1.295,1.6,12.386,12.386,0,0,1,1.116-1.741c.714-1.116,1.853-2.623,3.292-4.464a75,75,0,0,1,13.08-12.924A60.546,60.546,0,0,1,332.562,99.2a46.538,46.538,0,0,1,5.357-1.551,12.8,12.8,0,0,1,2.02-.335Z" transform="translate(-165.766 -71.185)" fill="#455a64"/>
      <path id="Path_63404" data-name="Path 63404" d="M258.8,140.643l.268.089.781.312c.67.29,1.674.67,2.991,1.116a48.224,48.224,0,0,0,11.5,2.344,62.855,62.855,0,0,0,17.333-1.116,112.52,112.52,0,0,0,20.379-6.35c7.031-2.868,13.661-5.815,19.565-8.705a117.191,117.191,0,0,0,15.1-8.75,74.776,74.776,0,0,0,9.129-7.411c1.027-.949,1.763-1.741,2.232-2.232l.592-.592c.134-.123.2-.19.212-.179s0,.078-.167.223l-.547.636a30.215,30.215,0,0,1-2.232,2.355,69.764,69.764,0,0,1-9.051,7.6,111.964,111.964,0,0,1-15.1,8.928c-5.915,2.935-12.533,5.9-19.576,8.783a111.284,111.284,0,0,1-20.513,6.328,61.8,61.8,0,0,1-17.489.96,46.774,46.774,0,0,1-11.451-2.522c-1.306-.5-2.3-.915-2.958-1.25l-.748-.368C258.876,140.7,258.787,140.654,258.8,140.643Z" transform="translate(-139.96 -69.809)" fill="#455a64"/>
      <path id="Path_63405" data-name="Path 63405" d="M335.714,236.079l2.02-3.951c-.145-.078-14.163-7.266-19.553-11.8-12.7-10.67-24.375-27.712-24.5-27.9L290,194.941c.491.725,12.132,17.723,25.312,28.794C321.116,228.579,335.122,235.778,335.714,236.079Z" transform="translate(-153.64 -60.145)" fill="#455a64"/>
      <path id="Path_63406" data-name="Path 63406" d="M285.786,220.49s19.152,8.549,19.152,10.446-3.036,5.692-5.312,5.5-8.862-3.9-10.045-5.413S286.3,225.6,284,223.7Z" transform="translate(-114.147 -56.889)" fill="#263238"/>
      <path id="Path_63407" data-name="Path 63407" d="M266.616,177.535l4.464-.212a104.554,104.554,0,0,1,6.54-37.734c9.687-24.955,28.314-38.348,55.345-39.821a32.9,32.9,0,0,1,7.344.5l-1.953-1.853a10.781,10.781,0,0,0-3.248-2.109h0a10.96,10.96,0,0,0-5.212-.8c-34.129,2.958-49.553,24.654-56.484,42.6A107.141,107.141,0,0,0,266.616,177.535Z" transform="translate(-130.099 -71.4)" fill="#455a64"/>
      <ellipse id="Ellipse_742" data-name="Ellipse 742" cx="14.14" cy="20.335" rx="14.14" ry="20.335" transform="translate(124.608 106.057)" fill="#455a64"/>
      <path id="Path_63408" data-name="Path 63408" d="M317.683,189.279a.971.971,0,0,0,0-.279,3.932,3.932,0,0,1,.067-.826,28.689,28.689,0,0,1,.324-3.147,24.14,24.14,0,0,1,4.364-10.636,15.714,15.714,0,0,1,2.656-2.734,12.077,12.077,0,0,1,3.6-1.953,10.045,10.045,0,0,1,4.33-.413,11.161,11.161,0,0,1,4.33,1.618,17.221,17.221,0,0,1,6.183,7.812,27.678,27.678,0,0,1,0,21.205,17.2,17.2,0,0,1-6.183,7.812,11.162,11.162,0,0,1-4.33,1.618,10.212,10.212,0,0,1-4.33-.413,12.077,12.077,0,0,1-3.6-1.953,16.115,16.115,0,0,1-2.656-2.734,24.14,24.14,0,0,1-4.364-10.636,29,29,0,0,1-.324-3.147,3.008,3.008,0,0,0-.067-.826.884.884,0,0,0,0-.279.749.749,0,0,0,0,.279v.826a27.056,27.056,0,0,0,.223,3.181A23.784,23.784,0,0,0,322.17,204.5a16.093,16.093,0,0,0,2.7,2.835,12.277,12.277,0,0,0,3.739,2.065,10.614,10.614,0,0,0,4.542.458,11.573,11.573,0,0,0,4.542-1.674,17.522,17.522,0,0,0,6.417-7.991,28.013,28.013,0,0,0,0-21.652,17.522,17.522,0,0,0-6.417-7.991,11.573,11.573,0,0,0-4.542-1.674,10.614,10.614,0,0,0-4.542.458,12.277,12.277,0,0,0-3.739,2.065,15.714,15.714,0,0,0-2.7,2.835,23.694,23.694,0,0,0-4.263,10.848,27.052,27.052,0,0,0-.223,3.17v.837A.8.8,0,0,0,317.683,189.279Z" transform="translate(-193.075 -62.887)" fill="#263238"/>
      <ellipse id="Ellipse_743" data-name="Ellipse 743" cx="9.007" cy="12.946" rx="9.007" ry="12.946" transform="translate(127.566 112.307)" fill="#455a64"/>
      <path id="Path_63409" data-name="Path 63409" d="M324.231,187.5c.067,0,0-.982.324-2.712a15.134,15.134,0,0,1,2.79-6.7,8.348,8.348,0,0,1,3.951-2.935,6.34,6.34,0,0,1,2.723-.257,6.931,6.931,0,0,1,2.712,1.016,10.892,10.892,0,0,1,3.895,4.911,17.31,17.31,0,0,1,1.328,6.7,17.131,17.131,0,0,1-1.328,6.7,10.893,10.893,0,0,1-3.9,4.911,6.931,6.931,0,0,1-2.712,1.016,6.339,6.339,0,0,1-2.723-.257,8.349,8.349,0,0,1-3.951-2.935,15.134,15.134,0,0,1-2.79-6.7c-.279-1.73-.257-2.712-.324-2.7a5.6,5.6,0,0,0,0,.7,16.026,16.026,0,0,0,.134,2.031,14.933,14.933,0,0,0,2.69,6.942,8.672,8.672,0,0,0,4.129,3.147,6.7,6.7,0,0,0,2.924.313,7.555,7.555,0,0,0,2.935-1.116,11.272,11.272,0,0,0,4.129-5.123,17.946,17.946,0,0,0,0-13.873,11.272,11.272,0,0,0-4.129-5.123,7.567,7.567,0,0,0-2.924-1.116,6.764,6.764,0,0,0-2.935.313,8.672,8.672,0,0,0-4.129,3.147,14.933,14.933,0,0,0-2.69,6.942,16.032,16.032,0,0,0-.134,2.031A5.9,5.9,0,0,0,324.231,187.5Z" transform="translate(-196.666 -62.249)" fill="#263238"/>
      <ellipse id="Ellipse_744" data-name="Ellipse 744" cx="6.473" cy="9.308" rx="6.473" ry="9.308" transform="translate(129.474 115.946)" fill="#455a64"/>
      <path id="Path_63410" data-name="Path 63410" d="M327.058,187.131c.056,0,.056-.7.257-1.942a11.161,11.161,0,0,1,2.031-4.81,5.927,5.927,0,0,1,2.813-2.087,4.464,4.464,0,0,1,3.85.547c2.422,1.6,3.705,4.944,3.716,8.281s-1.295,6.7-3.716,8.292a4.464,4.464,0,0,1-3.85.547,5.926,5.926,0,0,1-2.812-2.087,11.16,11.16,0,0,1-2.031-4.81c-.2-1.239-.2-1.942-.257-1.931a1.586,1.586,0,0,0,0,.5,11.28,11.28,0,0,0,.078,1.462,10.714,10.714,0,0,0,1.92,5.033,6.339,6.339,0,0,0,3,2.232,5.034,5.034,0,0,0,2.132.234,5.413,5.413,0,0,0,2.143-.781,8.158,8.158,0,0,0,3-3.728,12.9,12.9,0,0,0,0-10.045,8.158,8.158,0,0,0-3-3.728,5.413,5.413,0,0,0-2.143-.781,5.033,5.033,0,0,0-2.132.234,6.339,6.339,0,0,0-3,2.232,10.714,10.714,0,0,0-1.92,5.033,11.274,11.274,0,0,0-.078,1.462A1.7,1.7,0,0,0,327.058,187.131Z" transform="translate(-197.584 -61.877)" fill="#263238"/>
    </g>
  </g>
</svg>
